<?xml version="1.0" encoding="UTF-8" standalone="no"?>
<svg xmlns="http://www.w3.org/2000/svg"
     xmlns:svg="http://www.w3.org/2000/svg"
     version="1.1"
     width="5in" height="5in"
     viewBox="0 0 360 360">
  <path id="Selection #1"
        fill="black" stroke="black" stroke-width="1"
        d="M 100.00,47.02
           C 104.76,45.43 110.01,46.00 115.00,46.00
             115.00,46.00 139.00,46.00 139.00,46.00
             139.00,46.00 223.00,46.00 223.00,46.00
             223.00,46.00 248.00,46.00 248.00,46.00
             250.52,46.04 253.48,45.96 255.49,47.74
             258.34,50.26 257.99,55.52 258.00,59.00
             258.00,59.00 258.00,120.00 258.00,120.00
             258.00,121.91 257.08,129.88 259.30,130.38
             261.01,130.76 262.62,128.14 263.38,126.98
             263.38,126.98 269.79,116.15 269.79,116.15
             274.42,110.68 277.46,115.46 281.37,111.65
             288.12,105.06 287.63,89.94 300.00,96.59
             300.00,96.59 306.00,100.00 306.00,100.00
             307.79,101.04 311.05,102.74 312.22,104.39
             316.43,110.29 303.52,120.66 305.20,127.00
             305.77,129.15 307.99,131.07 308.02,134.00
             308.04,136.40 305.89,139.90 304.72,142.00
             304.72,142.00 295.77,158.00 295.77,158.00
             295.77,158.00 269.58,205.00 269.58,205.00
             269.58,205.00 258.12,226.00 258.12,226.00
             257.91,228.16 258.00,230.76 258.12,233.00
             258.12,233.00 258.12,280.00 258.12,280.00
             258.12,280.00 258.12,303.00 258.12,303.00
             257.96,306.05 257.98,310.06 255.49,312.26
             253.16,314.32 248.94,314.00 246.00,314.00
             246.00,314.00 93.00,314.00 93.00,314.00
             93.00,314.00 58.00,314.00 58.00,314.00
             55.01,314.00 50.84,314.31 48.43,312.26
             45.59,309.85 46.01,305.37 46.14,302.00
             46.14,302.00 46.14,114.00 46.14,114.00
             46.00,112.01 45.92,108.86 46.14,107.00
             47.72,102.28 56.33,93.90 59.83,90.00
             59.83,90.00 85.91,61.00 85.91,61.00
             90.58,55.96 94.17,50.90 100.00,47.02 Z
           M 108.31,55.60
           C 105.49,57.98 106.02,59.43 106.00,63.00
             106.00,63.00 106.00,95.00 106.00,95.00
             106.00,98.69 106.62,105.82 104.26,108.69
             102.02,111.41 98.16,110.99 95.00,111.00
             95.00,111.00 64.00,111.00 64.00,111.00
             62.01,111.00 58.19,110.77 56.60,112.02
             54.62,113.59 55.00,117.70 55.00,120.00
             55.00,120.00 55.00,229.00 55.00,229.00
             55.00,229.00 55.00,286.00 55.00,286.00
             55.00,289.48 54.08,301.99 56.60,303.98
             58.19,305.23 62.01,305.00 64.00,305.00
             64.00,305.00 206.00,305.00 206.00,305.00
             206.00,305.00 236.00,305.00 236.00,305.00
             238.54,305.00 245.55,305.44 247.40,303.98
             249.38,302.41 249.00,298.30 249.00,296.00
             249.00,296.00 249.00,255.00 249.00,255.00
             248.95,252.40 249.02,247.68 244.94,249.16
             243.21,249.80 237.81,254.54 236.00,256.00
             236.00,256.00 217.00,271.58 217.00,271.58
             214.36,273.74 209.01,278.38 206.00,279.78
             203.97,280.11 201.16,280.00 199.00,279.78
             199.00,279.78 106.00,279.78 106.00,279.78
             104.39,280.00 101.50,280.06 100.01,279.78
             96.31,278.78 93.35,275.58 97.26,272.56
             99.64,270.73 103.15,271.01 106.00,271.00
             106.00,271.00 193.00,271.00 193.00,271.00
             195.01,271.00 198.79,271.24 200.41,269.98
             201.83,268.87 202.11,266.66 202.41,265.00
             203.00,261.67 204.92,250.06 202.98,247.60
             201.42,245.62 197.30,246.00 195.00,246.00
             195.00,246.00 105.00,246.00 105.00,246.00
             102.07,245.99 95.48,246.45 95.48,241.99
             95.48,240.28 96.74,238.98 98.12,238.17
             100.49,236.79 104.30,237.00 107.00,237.00
             107.00,237.00 197.00,237.00 197.00,237.00
             199.12,237.00 202.73,237.23 204.49,235.98
             206.80,234.34 206.76,230.63 208.41,227.00
             208.41,227.00 219.42,207.00 219.42,207.00
             219.42,207.00 238.86,172.00 238.86,172.00
             244.27,162.30 248.98,157.38 249.00,146.00
             249.00,146.00 249.00,101.00 249.00,101.00
             249.00,101.00 249.00,69.00 249.00,69.00
             249.00,66.34 249.48,58.49 247.98,56.60
             246.41,54.62 242.30,55.00 240.00,55.00
             240.00,55.00 151.00,55.00 151.00,55.00
             151.00,55.00 124.00,55.00 124.00,55.00
             119.18,55.00 112.88,54.49 108.31,55.60 Z
           M 93.87,66.91
           C 89.79,68.74 88.88,70.78 85.92,74.00
             85.92,74.00 71.42,90.00 71.42,90.00
             69.83,91.84 64.86,97.10 64.17,98.94
             63.18,101.56 64.73,102.37 67.06,102.11
             67.06,102.11 84.00,102.11 84.00,102.11
             86.17,102.00 94.10,102.78 95.40,102.11
             97.38,100.54 97.00,96.14 97.00,94.00
             97.00,94.00 97.00,73.00 97.00,73.00
             96.93,69.65 97.41,67.71 93.87,66.91 Z
           M 296.10,106.71
           C 292.73,108.62 289.79,112.93 289.53,116.98
             289.33,120.10 291.75,122.35 294.82,121.34
             298.60,120.10 306.96,106.30 296.10,106.71 Z
           M 276.21,124.73
           C 271.02,127.82 263.02,144.94 259.70,151.00
             259.70,151.00 230.75,203.00 230.75,203.00
             228.37,207.53 220.57,220.23 219.65,224.00
             218.00,230.77 227.12,234.02 232.00,236.72
             234.17,237.92 237.26,239.96 239.79,238.85
             241.92,237.90 243.85,234.00 245.00,232.00
             245.00,232.00 253.86,216.00 253.86,216.00
             253.86,216.00 285.00,160.00 285.00,160.00
             285.00,160.00 293.30,145.00 293.30,145.00
             294.47,142.85 296.68,139.52 296.46,137.04
             296.23,134.32 294.06,133.04 291.98,131.73
             287.66,129.03 281.31,124.64 276.21,124.73 Z
           M 97.23,137.02
           C 102.55,135.07 118.47,136.00 125.00,136.08
             125.00,136.08 184.00,136.08 184.00,136.08
             184.00,136.08 203.98,136.08 203.98,136.08
             206.81,136.76 209.47,138.60 208.34,141.87
             207.08,145.52 202.07,144.99 199.00,144.92
             199.00,144.92 118.00,144.92 118.00,144.92
             118.00,144.92 99.04,144.92 99.04,144.92
             93.83,143.76 93.80,140.28 97.23,137.02 Z
           M 97.26,170.74
           C 102.51,169.33 119.52,170.00 126.00,170.00
             126.00,170.00 184.00,170.00 184.00,170.00
             184.00,170.00 201.00,170.00 201.00,170.00
             204.22,170.06 210.50,170.92 208.60,175.86
             207.22,179.45 202.10,178.99 199.00,178.90
             199.00,178.90 118.00,178.90 118.00,178.90
             118.00,178.90 99.04,178.90 99.04,178.90
             94.54,177.48 93.56,173.62 97.26,170.74 Z
           M 96.45,205.02
           C 101.46,203.03 122.27,204.00 129.00,204.00
             129.00,204.00 200.00,204.00 200.00,204.00
             201.71,204.00 205.21,203.87 206.69,204.60
             209.58,206.02 209.25,210.02 206.69,211.69
             204.37,213.19 199.73,213.00 197.00,212.86
             197.00,212.86 117.00,212.86 117.00,212.86
             117.00,212.86 99.04,212.86 99.04,212.86
             94.83,211.34 93.65,208.38 96.45,205.02 Z
           M 216.31,238.81
           C 215.81,239.17 215.38,238.84 214.59,240.33
             214.59,240.33 212.30,256.00 212.30,256.00
             212.14,258.12 212.12,261.35 215.15,261.18
             217.80,261.02 226.73,253.48 228.85,251.39
             230.21,250.04 231.77,248.44 230.83,246.37
             229.43,243.28 219.56,238.88 216.31,238.81 Z" />
</svg>
